<?xml version="1.0" encoding="UTF-8" standalone="no"?><!DOCTYPE svg PUBLIC "-//W3C//DTD SVG 1.1//EN" "http://www.w3.org/Graphics/SVG/1.1/DTD/svg11.dtd"><svg width="100%" height="100%" viewBox="0 0 99 25" version="1.1" xmlns="http://www.w3.org/2000/svg" xmlns:xlink="http://www.w3.org/1999/xlink" xml:space="preserve" xmlns:serif="http://www.serif.com/" style="fill-rule:evenodd;clip-rule:evenodd;stroke-linejoin:round;stroke-miterlimit:2;"><g id="layer1"><path d="M36.28,22.911c-0.146,-0.716 -0.411,-3.58 -0.588,-6.364c-0.178,-2.785 -0.478,-6.606 -0.667,-8.492c-0.286,-2.85 -0.19,-3.488 0.567,-3.778c1.302,-0.5 2.535,1.653 3.165,5.525c0.29,1.783 0.655,3.369 0.81,3.525c0.156,0.156 1.176,-0.398 2.267,-1.23c2.635,-2.01 2.763,-4.701 0.34,-7.125c-1.574,-1.574 -1.86,-1.644 -6.717,-1.644c-2.789,0 -5.222,-0.242 -5.404,-0.538c-0.717,-1.16 2.627,-2.467 6.922,-2.705c3.818,-0.212 4.538,-0.088 6.281,1.081c2.706,1.814 4.747,6.013 4.239,8.72c-0.569,3.035 -3.045,5.255 -5.86,5.255l-2.269,0l-0.164,4.359c-0.152,4.013 -0.264,4.373 -1.411,4.536c-0.923,0.132 -1.314,-0.16 -1.511,-1.125l0,0Zm18.563,0c-0.146,-0.716 -0.411,-3.58 -0.589,-6.364c-0.178,-2.785 -0.478,-6.606 -0.667,-8.492c-0.286,-2.85 -0.19,-3.488 0.568,-3.778c1.301,-0.5 2.534,1.653 3.164,5.525c0.291,1.783 0.655,3.369 0.811,3.525c0.156,0.156 1.176,-0.398 2.267,-1.23c2.635,-2.01 2.763,-4.701 0.34,-7.125c-1.574,-1.574 -1.86,-1.644 -6.717,-1.644c-2.79,0 -5.222,-0.242 -5.405,-0.538c-0.717,-1.16 2.628,-2.467 6.923,-2.705c3.818,-0.212 4.537,-0.088 6.281,1.081c2.705,1.814 4.746,6.013 4.239,8.72c-0.57,3.035 -3.045,5.255 -5.86,5.255l-2.27,0l-0.164,4.359c-0.151,4.013 -0.263,4.373 -1.41,4.536c-0.923,0.132 -1.315,-0.16 -1.511,-1.125l0,0Z" style="fill:#161616;"/><path d="M75.881,20.204c-1.594,-0.668 -3.206,-0.946 -4.355,-0.75c-1.003,0.171 -2.24,0.151 -2.749,-0.045c-0.846,-0.324 -0.84,-0.448 0.073,-1.457c1.828,-2.019 4.382,-2.004 11.028,0.066c3.361,1.047 6.114,2.064 6.119,2.26c0.033,1.353 -6.832,1.303 -10.116,-0.074l0,0Zm-62.016,0.174c-1.88,-0.491 -0.933,-1.029 5.144,-2.922c6.646,-2.071 9.2,-2.086 11.028,-0.066c0.921,1.018 0.925,1.13 0.059,1.462c-0.515,0.198 -1.693,0.209 -2.617,0.024c-1.06,-0.212 -2.723,0.075 -4.504,0.777c-2.601,1.025 -6.709,1.352 -9.11,0.725Zm70.454,-3.415c-0.774,-0.127 -3.174,-0.715 -5.333,-1.307c-4.467,-1.226 -6.615,-1.347 -8.265,-0.463c-1.82,0.974 -2.704,-0.313 -1.229,-1.789c1.735,-1.734 4.886,-1.905 10.512,-0.568c3.315,0.787 6.832,1.18 10.58,1.18c3.087,0 5.479,0.217 5.314,0.484c-0.649,1.05 -9.154,2.859 -11.579,2.463Zm-75.094,-0.993c-1.856,-0.399 -4.135,-1.06 -5.063,-1.471c-1.558,-0.688 -1.193,-0.769 4.782,-1.049c3.557,-0.167 8.519,-0.776 11.026,-1.353c5.106,-1.176 7.943,-0.933 9.527,0.818c1.323,1.462 0.406,2.645 -1.331,1.715c-1.642,-0.879 -3.783,-0.764 -8.265,0.442c-5.919,1.593 -7.01,1.685 -10.676,0.898Zm71.437,-5.393c-2.283,-0.922 -3.686,-1.087 -7.453,-0.88c-4.841,0.268 -5.712,-0.161 -3.086,-1.519c2.971,-1.536 6.517,-1.686 10.361,-0.438c3.822,1.241 14.38,2.461 16.913,1.954c2.159,-0.432 1.93,0.281 -0.404,1.257c-3.063,1.279 -12.788,1.057 -16.331,-0.374Zm-78.89,-0.213c-2.232,-0.97 -2.388,-1.654 -0.282,-1.233c2.533,0.507 13.091,-0.713 16.913,-1.953c3.844,-1.249 7.39,-1.099 10.361,0.438c2.62,1.355 1.754,1.807 -2.855,1.491c-3.63,-0.249 -4.977,-0.09 -7.615,0.897c-3.904,1.461 -13.509,1.67 -16.522,0.36Z" style="fill:#718094;"/></g></svg>